# xmcd CD database file
#
# Track frame offsets:
#	150
#	5161
#	16837
#	39289
#	58557
#	79027
#	103196
#	117427
#	134988
#	151550
#	166864
#	187256
#	207450
#	233742
#
# Disc length: 4444 seconds
#
# Revision: 8
# Processed by: cddbd v1.5PL3 Copyright (c) Steve Scherf et al.
# Submitted via: CDex 1.51
#
DISCID=b8115a0e
DTITLE=Dragon Ash - LILY OF DA VALLEY
DYEAR=2001
DGENRE=Hip-Hop
TTITLE0=Intro
TTITLE1=21st Century Riot
TTITLE2=Glory
TTITLE3=Amploud
TTITLE4=Bring It
TTITLE5=Sunset Beach
TTITLE6=My Friends' Anthem
TTITLE7=百合の咲く場所で
TTITLE8=Aim High
TTITLE9=Revolater
TTITLE10=Deep Impact
TTITLE11=静かな日々の階段を
TTITLE12=Lily of da Valley
TTITLE13=Outro
EXTD=YEAR: 2001
EXTT0=
EXTT1=
EXTT2=
EXTT3=
EXTT4=
EXTT5=
EXTT6=
EXTT7=
EXTT8=
EXTT9=
EXTT10=
EXTT11=
EXTT12=
EXTT13=
PLAYORDER=
